<svg xmlns="http://www.w3.org/2000/svg" xmlns:xlink="http://www.w3.org/1999/xlink" width="554" zoomAndPan="magnify" viewBox="0 0 415.5 268.499992" height="358" preserveAspectRatio="xMidYMid meet" version="1.0"><defs><g/></defs><g fill="#1b263b" fill-opacity="1"><g transform="translate(79.342403, 190.831935)"><g><path d="M 1.6875 -67.140625 L 45.546875 -67.140625 L 45.546875 -55.5 C 45.546875 -51.789062 46.441406 -48.835938 48.234375 -46.640625 C 50.035156 -44.453125 52.257812 -42.988281 54.90625 -42.25 C 57.550781 -41.519531 60.222656 -41.546875 62.921875 -42.328125 C 65.617188 -43.117188 67.863281 -44.640625 69.65625 -46.890625 C 71.457031 -49.140625 72.359375 -52.117188 72.359375 -55.828125 L 72.359375 -118.078125 L 116.21875 -118.078125 L 116.21875 -55.328125 C 116.21875 -43.859375 113.859375 -33.707031 109.140625 -24.875 C 104.421875 -16.050781 97.757812 -9.132812 89.15625 -4.125 C 80.550781 0.875 70.515625 3.375 59.046875 3.375 C 47.679688 3.375 37.695312 1.15625 29.09375 -3.28125 C 20.488281 -7.726562 13.769531 -14.363281 8.9375 -23.1875 C 4.101562 -32.019531 1.6875 -42.957031 1.6875 -56 Z M 1.6875 -67.140625 "/></g></g></g><path stroke-linecap="butt" transform="matrix(1.034921, 0, 0, 1.034921, 157.505148, 31.14876)" fill="none" stroke-linejoin="miter" d="M 55.392537 55.427395 C 60.12569 55.427395 64.549338 56.318164 68.663481 58.092153 C 72.777625 59.869916 76.416189 62.323304 79.582947 65.452318 C 82.749706 68.56246 85.221966 72.193474 86.999729 76.345363 C 88.777492 80.497251 89.664487 84.94732 89.664487 89.699345 L 89.664487 124.00149 L 61.186308 124.00149 L 61.186308 89.699345 C 61.186308 88.117853 60.620142 86.736406 59.48026 85.55878 C 58.340378 84.358507 56.977804 83.762145 55.392537 83.762145 C 53.731782 83.762145 52.323914 84.358507 51.16516 85.55878 C 50.025278 86.736406 49.455337 88.117853 49.455337 89.699345 C 49.455337 91.284611 50.025278 92.673606 51.16516 93.870105 C 52.323914 95.047732 53.731782 95.640319 55.392537 95.640319 L 59.536876 95.640319 L 59.536876 124.00149 L 55.392537 124.00149 C 50.644287 124.00149 46.190443 123.110721 42.038555 121.332958 C 37.886667 119.55897 34.248103 117.086709 31.119089 113.919951 C 27.990075 110.749418 25.536687 107.110854 23.758924 102.99671 C 21.981161 98.882566 21.094166 94.451369 21.094166 89.699345 C 21.094166 84.94732 21.981161 80.497251 23.758924 76.345363 C 25.536687 72.193474 27.990075 68.56246 31.119089 65.452318 C 34.248103 62.323304 37.886667 59.869916 42.038555 58.092153 C 46.190443 56.318164 50.644287 55.427395 55.392537 55.427395 Z M 55.392537 55.427395 " stroke="#ffffff" stroke-width="8.900025" stroke-opacity="1" stroke-miterlimit="4"/><g fill="#1b263b" fill-opacity="1"><g transform="translate(178.106538, 159.478927)"><g><path d="M 36.71875 -70.96875 C 41.625 -70.96875 46.207031 -70.046875 50.46875 -68.203125 C 54.726562 -66.367188 58.492188 -63.832031 61.765625 -60.59375 C 65.035156 -57.363281 67.59375 -53.597656 69.4375 -49.296875 C 71.28125 -45.003906 72.203125 -40.398438 72.203125 -35.484375 L 72.203125 0 L 42.734375 0 L 42.734375 -35.484375 C 42.734375 -37.117188 42.140625 -38.550781 40.953125 -39.78125 C 39.765625 -41.007812 38.351562 -41.625 36.71875 -41.625 C 35 -41.625 33.546875 -41.007812 32.359375 -39.78125 C 31.171875 -38.550781 30.578125 -37.117188 30.578125 -35.484375 C 30.578125 -33.847656 31.171875 -32.414062 32.359375 -31.1875 C 33.546875 -29.957031 35 -29.34375 36.71875 -29.34375 L 41.015625 -29.34375 L 41.015625 0 L 36.71875 0 C 31.800781 0 27.191406 -0.921875 22.890625 -2.765625 C 18.597656 -4.609375 14.832031 -7.164062 11.59375 -10.4375 C 8.363281 -13.707031 5.828125 -17.472656 3.984375 -21.734375 C 2.148438 -25.992188 1.234375 -30.578125 1.234375 -35.484375 C 1.234375 -40.398438 2.148438 -45.003906 3.984375 -49.296875 C 5.828125 -53.597656 8.363281 -57.363281 11.59375 -60.59375 C 14.832031 -63.832031 18.597656 -66.367188 22.890625 -68.203125 C 27.191406 -70.046875 31.800781 -70.96875 36.71875 -70.96875 Z M 36.71875 -70.96875 "/></g></g></g><path stroke-linecap="butt" transform="matrix(1.034921, 0, 0, 1.034921, 211.680865, 65.616272)" fill="none" stroke-linejoin="miter" d="M 46.635889 123.998912 L 17.463213 123.998912 L 17.463213 89.817549 C 17.463213 83.963387 18.429471 78.864113 20.358212 74.519728 C 22.309599 70.175343 24.925289 66.563201 28.209055 63.6833 C 31.492821 60.788302 35.16158 58.625545 39.219107 57.195031 C 43.295506 55.768291 47.473816 55.051147 51.761584 55.051147 C 56.03048 55.051147 60.220112 55.768291 64.334256 57.195031 C 68.4484 58.625545 72.128483 60.788302 75.374504 63.6833 C 78.616751 66.563201 81.20602 70.175343 83.138535 74.519728 C 85.067276 78.864113 86.033533 83.963387 86.033533 89.817549 L 86.033533 123.998912 L 56.860857 123.998912 L 56.860857 89.817549 C 56.860857 88.07753 56.339984 86.714956 55.298238 85.729826 C 54.271589 84.744696 53.093963 84.254019 51.761584 84.254019 C 50.489596 84.254019 49.308195 84.744696 48.228705 85.729826 C 47.164311 86.714956 46.635889 88.07753 46.635889 89.817549 Z M 46.635889 123.998912 " stroke="#fff9f9" stroke-width="8.900025" stroke-opacity="1" stroke-miterlimit="4"/><g fill="#1b263b" fill-opacity="1"><g transform="translate(228.643862, 193.946439)"><g><path d="M 31.3125 0 L 1.109375 0 L 1.109375 -35.359375 C 1.109375 -41.421875 2.109375 -46.703125 4.109375 -51.203125 C 6.117188 -55.703125 8.820312 -59.445312 12.21875 -62.4375 C 15.613281 -65.425781 19.421875 -67.65625 23.640625 -69.125 C 27.859375 -70.601562 32.175781 -71.34375 36.59375 -71.34375 C 41.007812 -71.34375 45.347656 -70.601562 49.609375 -69.125 C 53.867188 -67.65625 57.675781 -65.425781 61.03125 -62.4375 C 64.382812 -59.445312 67.0625 -55.703125 69.0625 -51.203125 C 71.070312 -46.703125 72.078125 -41.421875 72.078125 -35.359375 L 72.078125 0 L 41.875 0 L 41.875 -35.359375 C 41.875 -37.160156 41.34375 -38.570312 40.28125 -39.59375 C 39.21875 -40.625 37.988281 -41.140625 36.59375 -41.140625 C 35.28125 -41.140625 34.070312 -40.625 32.96875 -39.59375 C 31.863281 -38.570312 31.3125 -37.160156 31.3125 -35.359375 Z M 31.3125 0 "/></g></g></g><g fill="#1b263b" fill-opacity="1"><g transform="translate(294.043962, 193.946439)"><g><path d="M 43.46875 -34.75 C 43.46875 -36.46875 42.875 -37.941406 41.6875 -39.171875 C 40.5 -40.398438 39.046875 -41.015625 37.328125 -41.015625 C 35.609375 -41.015625 34.132812 -40.398438 32.90625 -39.171875 C 31.675781 -37.941406 31.0625 -36.46875 31.0625 -34.75 C 31.0625 -33.03125 31.71875 -31.597656 33.03125 -30.453125 C 34.34375 -29.304688 35.859375 -28.734375 37.578125 -28.734375 L 41.75 -28.734375 L 41.75 -14.609375 L 8.234375 -14.609375 C 5.859375 -17.390625 4.078125 -20.5625 2.890625 -24.125 C 1.703125 -27.6875 1.109375 -31.226562 1.109375 -34.75 C 1.109375 -39.738281 2.046875 -44.421875 3.921875 -48.796875 C 5.804688 -53.179688 8.40625 -57.03125 11.71875 -60.34375 C 15.039062 -63.664062 18.890625 -66.265625 23.265625 -68.140625 C 27.648438 -70.023438 32.335938 -70.96875 37.328125 -70.96875 C 42.328125 -70.96875 46.992188 -70.023438 51.328125 -68.140625 C 55.671875 -66.265625 59.5 -63.664062 62.8125 -60.34375 C 66.125 -57.03125 68.722656 -53.179688 70.609375 -48.796875 C 72.492188 -44.421875 73.4375 -39.738281 73.4375 -34.75 L 73.4375 -19.03125 C 73.4375 -14.039062 72.492188 -9.375 70.609375 -5.03125 C 68.722656 -0.695312 66.125 3.125 62.8125 6.4375 C 59.5 9.757812 55.671875 12.359375 51.328125 14.234375 C 46.992188 16.117188 42.328125 17.0625 37.328125 17.0625 L 1.109375 17.0625 L 1.109375 -12.890625 L 43.46875 -12.890625 C 43.46875 -16.742188 43.46875 -20.46875 43.46875 -24.0625 C 43.46875 -27.664062 43.46875 -31.226562 43.46875 -34.75 Z M 43.46875 -34.75 "/></g></g></g><g fill="#1b263b" fill-opacity="1"><g transform="translate(286.299162, 123.565126)"><g><path d="M 7.359375 -6 L 3.65625 -2.984375 L -10.390625 -13.25 L -7.796875 -15.375 L 3.703125 -6.734375 L -2.6875 -19.53125 L 0.453125 -22.09375 L 11.71875 -13.21875 L 5.5625 -26.265625 L 8.140625 -28.359375 L 15.359375 -12.53125 L 11.6875 -9.53125 L 1.265625 -17.875 Z M 7.359375 -6 "/></g></g></g><g fill="#1b263b" fill-opacity="1"><g transform="translate(308.19577, 107.913581)"><g><path d="M 12.34375 -3.140625 L 1.453125 -0.375 L -2.6875 -16.703125 L 8.203125 -19.46875 L 8.890625 -16.703125 L 1.09375 -14.71875 L 2.125 -10.703125 L 9.125 -12.484375 L 9.8125 -9.734375 L 2.8125 -7.953125 L 3.84375 -3.90625 L 11.640625 -5.890625 Z M 12.34375 -3.140625 "/></g></g></g><g fill="#1b263b" fill-opacity="1"><g transform="translate(324.473758, 104.171692)"><g><path d="M 8.40625 0.890625 L 1.484375 0.15625 L 3.25 -16.59375 L 9.890625 -15.890625 C 11.941406 -15.679688 13.375 -15.082031 14.1875 -14.09375 C 14.800781 -13.320312 15.039062 -12.335938 14.90625 -11.140625 C 14.8125 -10.179688 14.507812 -9.382812 14 -8.75 C 13.5 -8.125 12.84375 -7.753906 12.03125 -7.640625 C 13.101562 -7.347656 13.890625 -6.832031 14.390625 -6.09375 C 14.890625 -5.351562 15.082031 -4.441406 14.96875 -3.359375 C 14.882812 -2.554688 14.664062 -1.867188 14.3125 -1.296875 C 13.96875 -0.722656 13.5625 -0.28125 13.09375 0.03125 C 12.570312 0.375 12.003906 0.609375 11.390625 0.734375 C 10.773438 0.867188 10.203125 0.9375 9.671875 0.9375 C 9.148438 0.9375 8.726562 0.921875 8.40625 0.890625 Z M 6.125 -13.4375 L 5.6875 -9.3125 L 8.953125 -8.96875 C 9.765625 -8.882812 10.398438 -8.992188 10.859375 -9.296875 C 11.316406 -9.609375 11.582031 -10.101562 11.65625 -10.78125 C 11.726562 -11.4375 11.585938 -11.941406 11.234375 -12.296875 C 10.816406 -12.742188 10.035156 -13.023438 8.890625 -13.140625 Z M 5.421875 -6.734375 L 4.953125 -2.34375 L 8.3125 -1.984375 C 8.738281 -1.941406 9.203125 -1.929688 9.703125 -1.953125 C 10.203125 -1.972656 10.640625 -2.113281 11.015625 -2.375 C 11.234375 -2.507812 11.40625 -2.703125 11.53125 -2.953125 C 11.664062 -3.203125 11.753906 -3.523438 11.796875 -3.921875 C 11.867188 -4.585938 11.769531 -5.082031 11.5 -5.40625 C 11.226562 -5.726562 10.875 -5.953125 10.4375 -6.078125 C 10.007812 -6.203125 9.570312 -6.289062 9.125 -6.34375 Z M 5.421875 -6.734375 "/></g></g></g><g fill="#1b263b" fill-opacity="1"><g transform="translate(342.611506, 106.620637)"><g><path d="M 7.140625 4.015625 C 6.429688 3.648438 5.75 3.1875 5.09375 2.625 C 4.4375 2.070312 3.894531 1.4375 3.46875 0.71875 C 3.039062 0 2.785156 -0.796875 2.703125 -1.671875 C 2.617188 -2.554688 2.773438 -3.507812 3.171875 -4.53125 L 6.09375 -3.03125 C 5.90625 -2.226562 5.898438 -1.53125 6.078125 -0.9375 C 6.253906 -0.34375 6.554688 0.160156 6.984375 0.578125 C 7.410156 0.992188 7.882812 1.335938 8.40625 1.609375 C 9.175781 1.992188 9.90625 2.15625 10.59375 2.09375 C 11.289062 2.039062 11.828125 1.65625 12.203125 0.9375 C 12.472656 0.40625 12.507812 -0.0859375 12.3125 -0.546875 C 12.125 -1.003906 11.796875 -1.453125 11.328125 -1.890625 C 10.867188 -2.335938 10.351562 -2.796875 9.78125 -3.265625 C 9.238281 -3.722656 8.703125 -4.191406 8.171875 -4.671875 C 7.640625 -5.160156 7.191406 -5.6875 6.828125 -6.25 C 6.460938 -6.8125 6.257812 -7.421875 6.21875 -8.078125 C 6.175781 -8.742188 6.351562 -9.46875 6.75 -10.25 C 7.25 -11.226562 7.894531 -11.921875 8.6875 -12.328125 C 9.476562 -12.742188 10.359375 -12.910156 11.328125 -12.828125 C 12.296875 -12.753906 13.285156 -12.460938 14.296875 -11.953125 C 15.265625 -11.453125 16.085938 -10.8125 16.765625 -10.03125 C 17.441406 -9.257812 17.898438 -8.375 18.140625 -7.375 C 18.378906 -6.382812 18.296875 -5.300781 17.890625 -4.125 L 15 -5.609375 C 15.21875 -6.503906 15.128906 -7.289062 14.734375 -7.96875 C 14.347656 -8.644531 13.769531 -9.179688 13 -9.578125 C 12.300781 -9.929688 11.644531 -10.078125 11.03125 -10.015625 C 10.414062 -9.953125 9.960938 -9.628906 9.671875 -9.046875 C 9.429688 -8.597656 9.40625 -8.160156 9.59375 -7.734375 C 9.78125 -7.304688 10.097656 -6.882812 10.546875 -6.46875 C 11.003906 -6.050781 11.488281 -5.613281 12 -5.15625 C 12.570312 -4.707031 13.125 -4.222656 13.65625 -3.703125 C 14.195312 -3.179688 14.65625 -2.625 15.03125 -2.03125 C 15.414062 -1.4375 15.632812 -0.785156 15.6875 -0.078125 C 15.738281 0.617188 15.546875 1.394531 15.109375 2.25 C 14.390625 3.664062 13.320312 4.539062 11.90625 4.875 C 10.5 5.207031 8.910156 4.921875 7.140625 4.015625 Z M 7.140625 4.015625 "/></g></g></g><g fill="#1b263b" fill-opacity="1"><g transform="translate(358.664598, 116.099527)"><g><path d="M 3.40625 3.21875 L 1.09375 1.03125 L 12.6875 -11.1875 L 15 -9 Z M 3.40625 3.21875 "/></g></g></g><g fill="#1b263b" fill-opacity="1"><g transform="translate(365.714905, 122.713547)"><g><path d="M 4.390625 7.328125 L 2.75 4.59375 L 14.765625 -2.59375 L 12.125 -7 L 14.5625 -8.46875 L 21.484375 3.078125 L 19.046875 4.546875 L 16.40625 0.140625 Z M 4.390625 7.328125 "/></g></g></g><g fill="#1b263b" fill-opacity="1"><g transform="translate(373.96089, 137.518733)"><g><path d="M 2.53125 12.484375 L 0.296875 1.46875 L 16.8125 -1.875 L 19.046875 9.140625 L 16.25 9.703125 L 14.65625 1.8125 L 10.578125 2.640625 L 12 9.71875 L 9.234375 10.28125 L 7.8125 3.203125 L 3.71875 4.03125 L 5.3125 11.921875 Z M 2.53125 12.484375 "/></g></g></g></svg>